<svg xmlns="http://www.w3.org/2000/svg" viewBox="0 0 160 172"><defs><style>.cls-1{fill:none;stroke-width:2px;}.cls-1,.cls-2,.cls-3{stroke:#9b9ba3;stroke-miterlimit:10;}.cls-2{fill:#1d1d1b;}.cls-3{fill:#fff;}</style></defs><g id="Layer_2" data-name="Layer 2"><g id="_ÎÓÈ_2" data-name="—ÎÓÈ_2"><g id="_10" data-name="10"><line class="cls-1" x1="80" y1="46" x2="35" y2="66"/><line class="cls-1" x1="80" y1="86" x2="35" y2="106"/><line class="cls-1" x1="80" y1="126" x2="35" y2="146"/><line class="cls-1" x1="80" y1="46" x2="35" y2="26"/><line class="cls-1" x1="80" y1="86" x2="35" y2="66"/><line class="cls-1" x1="125" y1="66" x2="80" y2="86"/><line class="cls-1" x1="125" y1="106" x2="80" y2="126"/><line class="cls-1" x1="125" y1="66" x2="80" y2="46"/><line class="cls-1" x1="125" y1="106" x2="80" y2="86"/><line class="cls-1" x1="80" y1="126" x2="35" y2="106"/><line class="cls-1" x1="35" y1="26" y2="26"/><line class="cls-1" x1="35" y1="66" y2="66"/><line class="cls-1" x1="35" y1="106" y2="106"/><line class="cls-1" x1="160" y1="66" x2="125" y2="66"/><line class="cls-1" x1="160" y1="106" x2="125" y2="106"/><line class="cls-1" x1="35" y1="146" y2="146"/><path class="cls-1" d="M125,66V11A10,10,0,0,0,115,1H45A10,10,0,0,0,35,11V26"/><path class="cls-1" d="M125,106v55a10,10,0,0,1-10,10H45a10,10,0,0,1-10-10V146"/><circle class="cls-2" cx="80" cy="46" r="10"/><circle class="cls-3" cx="80" cy="46" r="7"/><circle class="cls-2" cx="80" cy="86" r="10"/><circle class="cls-3" cx="80" cy="86" r="7"/><circle class="cls-2" cx="80" cy="131" r="10"/><circle class="cls-3" cx="80" cy="131" r="7"/><circle class="cls-2" cx="35" cy="26" r="10"/><circle class="cls-3" cx="35" cy="26" r="7"/><circle class="cls-2" cx="35" cy="66" r="10"/><circle class="cls-3" cx="35" cy="66" r="7"/><circle class="cls-2" cx="35" cy="106" r="10"/><circle class="cls-3" cx="35" cy="106" r="7"/><circle class="cls-2" cx="125" cy="66" r="10"/><circle class="cls-3" cx="125" cy="66" r="7"/><circle class="cls-2" cx="125" cy="106" r="10"/><circle class="cls-3" cx="125" cy="106" r="7"/><circle class="cls-2" cx="35" cy="146" r="10"/><circle class="cls-3" cx="35" cy="146" r="7"/></g></g></g></svg>