<svg xmlns="http://www.w3.org/2000/svg" viewBox="0 0 250 182"><defs><style>.cls-1{fill:none;stroke-width:2px;}.cls-1,.cls-2,.cls-3{stroke:#9b9ba3;stroke-miterlimit:10;}.cls-2{fill:#1d1d1b;}.cls-3{fill:#fff;}</style></defs><g id="Layer_2" data-name="Layer 2"><g id="_ÎÓÈ_2" data-name="—ÎÓÈ_2"><g id="_13" data-name="13"><line class="cls-1" x1="35" y1="111" x2="80" y2="131"/><line class="cls-1" x1="35" y1="71" x2="80" y2="91"/><line class="cls-1" x1="80" y1="91" x2="125" y2="111"/><line class="cls-1" x1="80" y1="51" x2="125" y2="71"/><line class="cls-1" x1="80" y1="131" x2="125" y2="151"/><line class="cls-1" x1="35" y1="71" x2="80" y2="51"/><line class="cls-1" x1="80" y1="51" x2="125" y2="31"/><line class="cls-1" x1="80" y1="91" x2="125" y2="71"/><line class="cls-1" x1="80" y1="131" x2="125" y2="111"/><line class="cls-1" x1="35" y1="111" x2="80" y2="91"/><line class="cls-1" y1="71" x2="35" y2="71"/><line class="cls-1" y1="111" x2="35" y2="111"/><line class="cls-1" x1="80" y1="131" x2="125" y2="31"/><line class="cls-1" x1="35" y1="71" x2="80" y2="131"/><line class="cls-1" x1="35" y1="111" x2="80" y2="51"/><line class="cls-1" x1="80" y1="91" x2="125" y2="31"/><line class="cls-1" x1="80" y1="131" x2="125" y2="71"/><line class="cls-1" x1="80" y1="91" x2="125" y2="151"/><line class="cls-1" x1="80" y1="51" x2="125" y2="111"/><line class="cls-1" x1="80" y1="51" x2="125" y2="151"/><line class="cls-1" x1="215" y1="111" x2="170" y2="131"/><line class="cls-1" x1="215" y1="71" x2="170" y2="91"/><line class="cls-1" x1="170" y1="91" x2="125" y2="111"/><line class="cls-1" x1="170" y1="51" x2="125" y2="71"/><line class="cls-1" x1="170" y1="131" x2="125" y2="151"/><line class="cls-1" x1="215" y1="71" x2="170" y2="51"/><line class="cls-1" x1="170" y1="51" x2="125" y2="31"/><line class="cls-1" x1="170" y1="91" x2="125" y2="71"/><line class="cls-1" x1="170" y1="131" x2="125" y2="111"/><line class="cls-1" x1="215" y1="111" x2="170" y2="91"/><line class="cls-1" x1="250" y1="71" x2="215" y2="71"/><line class="cls-1" x1="250" y1="111" x2="215" y2="111"/><line class="cls-1" x1="170" y1="131" x2="125" y2="31"/><line class="cls-1" x1="215" y1="71" x2="170" y2="131"/><line class="cls-1" x1="215" y1="111" x2="170" y2="51"/><line class="cls-1" x1="170" y1="91" x2="125" y2="31"/><line class="cls-1" x1="170" y1="131" x2="125" y2="71"/><line class="cls-1" x1="170" y1="91" x2="125" y2="151"/><line class="cls-1" x1="170" y1="51" x2="125" y2="111"/><line class="cls-1" x1="170" y1="51" x2="125" y2="151"/><path class="cls-1" d="M125,31V11A10,10,0,0,0,115,1H45A10,10,0,0,0,35,11V71"/><path class="cls-1" d="M215,111v60a10,10,0,0,1-10,10H45a10,10,0,0,1-10-10V111"/><circle class="cls-2" cx="35" cy="71" r="10"/><circle class="cls-3" cx="35" cy="71" r="7"/><circle class="cls-2" cx="35" cy="111" r="10"/><circle class="cls-3" cx="35" cy="111" r="7"/><circle class="cls-2" cx="125" cy="71" r="10"/><circle class="cls-3" cx="125" cy="71" r="7"/><circle class="cls-2" cx="125" cy="31" r="10"/><circle class="cls-3" cx="125" cy="31" r="7"/><circle class="cls-2" cx="125" cy="111" r="10"/><circle class="cls-3" cx="125" cy="111" r="7"/><circle class="cls-2" cx="125" cy="156" r="10"/><circle class="cls-3" cx="125" cy="156" r="7"/><circle class="cls-2" cx="80" cy="51" r="10"/><circle class="cls-3" cx="80" cy="51" r="7"/><circle class="cls-2" cx="80" cy="91" r="10"/><circle class="cls-3" cx="80" cy="91" r="7"/><circle class="cls-2" cx="80" cy="131" r="10"/><circle class="cls-3" cx="80" cy="131" r="7"/><circle class="cls-2" cx="215" cy="71" r="10"/><circle class="cls-3" cx="215" cy="71" r="7"/><circle class="cls-2" cx="215" cy="111" r="10"/><circle class="cls-3" cx="215" cy="111" r="7"/><circle class="cls-2" cx="170" cy="51" r="10"/><circle class="cls-3" cx="170" cy="51" r="7"/><circle class="cls-2" cx="170" cy="91" r="10"/><circle class="cls-3" cx="170" cy="91" r="7"/><circle class="cls-2" cx="170" cy="131" r="10"/><circle class="cls-3" cx="170" cy="131" r="7"/></g></g></g></svg>