<svg xmlns="http://www.w3.org/2000/svg" viewBox="0 0 250 141"><defs><style>.cls-1{fill:none;stroke-width:2px;}.cls-1,.cls-2,.cls-3{stroke:#9b9ba3;stroke-miterlimit:10;}.cls-2{fill:#1d1d1b;}.cls-3{fill:#fff;}</style></defs><g id="Layer_2" data-name="Layer 2"><g id="_ÎÓÈ_2" data-name="—ÎÓÈ_2"><g id="_3" data-name="3"><line class="cls-1" x1="35" y1="50.5" x2="80" y2="10.5"/><line class="cls-1" x1="35" y1="90.5" x2="80" y2="50.5"/><line class="cls-1" x1="35" y1="90.5" x2="80" y2="130.5"/><line class="cls-1" x1="35" y1="50.5" x2="80" y2="90.5"/><line class="cls-1" x1="35" y1="90.5" x2="80" y2="10.5"/><line class="cls-1" x1="35" y1="50.5" x2="80" y2="130.5"/><line class="cls-1" x1="35" y1="50.5" x2="80" y2="50.5"/><line class="cls-1" x1="35" y1="90.5" x2="80" y2="90.5"/><line class="cls-1" y1="50.5" x2="35" y2="50.5"/><line class="cls-1" y1="90.5" x2="35" y2="90.5"/><line class="cls-1" x1="125" y1="50.5" x2="80" y2="10.5"/><line class="cls-1" x1="125" y1="90.5" x2="80" y2="50.5"/><line class="cls-1" x1="125" y1="90.5" x2="80" y2="130.5"/><line class="cls-1" x1="125" y1="50.5" x2="80" y2="90.5"/><line class="cls-1" x1="125" y1="90.5" x2="80" y2="10.5"/><line class="cls-1" x1="125" y1="50.5" x2="80" y2="130.5"/><line class="cls-1" x1="125" y1="50.5" x2="80" y2="50.5"/><line class="cls-1" x1="125" y1="90.5" x2="80" y2="90.5"/><line class="cls-1" x1="125" y1="50.5" x2="170" y2="10.5"/><line class="cls-1" x1="125" y1="90.5" x2="170" y2="50.5"/><line class="cls-1" x1="125" y1="90.5" x2="170" y2="130.5"/><line class="cls-1" x1="125" y1="50.5" x2="170" y2="90.5"/><line class="cls-1" x1="125" y1="90.5" x2="170" y2="10.5"/><line class="cls-1" x1="125" y1="50.5" x2="170" y2="130.5"/><line class="cls-1" x1="125" y1="50.5" x2="170" y2="50.5"/><line class="cls-1" x1="125" y1="90.5" x2="170" y2="90.5"/><line class="cls-1" x1="215" y1="50.5" x2="170" y2="10.5"/><line class="cls-1" x1="215" y1="90.5" x2="170" y2="50.5"/><line class="cls-1" x1="215" y1="90.5" x2="170" y2="130.5"/><line class="cls-1" x1="215" y1="50.5" x2="170" y2="90.5"/><line class="cls-1" x1="215" y1="90.5" x2="170" y2="10.5"/><line class="cls-1" x1="215" y1="50.5" x2="170" y2="130.5"/><line class="cls-1" x1="215" y1="50.5" x2="170" y2="50.5"/><line class="cls-1" x1="215" y1="90.5" x2="170" y2="90.5"/><line class="cls-1" x1="250" y1="50.5" x2="215" y2="50.5"/><line class="cls-1" x1="250" y1="90.5" x2="215" y2="90.5"/><circle class="cls-2" cx="35" cy="50.5" r="10"/><circle class="cls-3" cx="35" cy="50.5" r="7"/><circle class="cls-2" cx="35" cy="90.5" r="10"/><circle class="cls-3" cx="35" cy="90.5" r="7"/><circle class="cls-2" cx="80" cy="50.5" r="10"/><circle class="cls-3" cx="80" cy="50.5" r="7"/><circle class="cls-2" cx="80" cy="10.5" r="10"/><circle class="cls-3" cx="80" cy="10.5" r="7"/><circle class="cls-2" cx="80" cy="90.5" r="10"/><circle class="cls-3" cx="80" cy="90.5" r="7"/><circle class="cls-2" cx="80" cy="130.5" r="10"/><circle class="cls-3" cx="80" cy="130.5" r="7"/><circle class="cls-2" cx="170" cy="50.5" r="10"/><circle class="cls-3" cx="170" cy="50.5" r="7"/><circle class="cls-2" cx="170" cy="10.5" r="10"/><circle class="cls-3" cx="170" cy="10.5" r="7"/><circle class="cls-2" cx="170" cy="90.5" r="10"/><circle class="cls-3" cx="170" cy="90.5" r="7"/><circle class="cls-2" cx="170" cy="130.5" r="10"/><circle class="cls-3" cx="170" cy="130.5" r="7"/><circle class="cls-2" cx="125" cy="50.5" r="10"/><circle class="cls-3" cx="125" cy="50.5" r="7"/><circle class="cls-2" cx="125" cy="90.5" r="10"/><circle class="cls-3" cx="125" cy="90.5" r="7"/><circle class="cls-2" cx="215" cy="50.5" r="10"/><circle class="cls-3" cx="215" cy="50.5" r="7"/><circle class="cls-2" cx="215" cy="90.5" r="10"/><circle class="cls-3" cx="215" cy="90.5" r="7"/></g></g></g></svg>