<svg xmlns="http://www.w3.org/2000/svg" viewBox="0 0 250 132"><defs><style>.cls-1{fill:none;stroke-width:2px;}.cls-1,.cls-2,.cls-3{stroke:#9b9ba3;stroke-miterlimit:10;}.cls-2{fill:#1d1d1b;}.cls-3{fill:#fff;}</style></defs><g id="Layer_2" data-name="Layer 2"><g id="_ÎÓÈ_2" data-name="—ÎÓÈ_2"><g id="_11" data-name="11"><path class="cls-1" d="M35,66V11A10,10,0,0,1,45,1h70a10,10,0,0,1,10,10V26"/><path class="cls-1" d="M35,66v55a10,10,0,0,0,10,10h70a10,10,0,0,0,10-10V106"/><line class="cls-1" x1="80" y1="46" x2="125" y2="66"/><line class="cls-1" x1="80" y1="86" x2="125" y2="106"/><line class="cls-1" x1="80" y1="46" x2="125" y2="26"/><line class="cls-1" x1="80" y1="86" x2="125" y2="66"/><line class="cls-1" x1="35" y1="66" x2="80" y2="86"/><line class="cls-1" x1="35" y1="66" x2="80" y2="46"/><line class="cls-1" y1="66" x2="35" y2="66"/><line class="cls-1" x1="170" y1="46" x2="125" y2="66"/><line class="cls-1" x1="170" y1="86" x2="125" y2="106"/><line class="cls-1" x1="170" y1="46" x2="125" y2="26"/><line class="cls-1" x1="170" y1="86" x2="125" y2="66"/><line class="cls-1" x1="215" y1="66" x2="170" y2="86"/><line class="cls-1" x1="215" y1="66" x2="170" y2="46"/><line class="cls-1" x1="250" y1="66" x2="215" y2="66"/><line class="cls-1" x1="80" y1="46" x2="125" y2="106"/><line class="cls-1" x1="80" y1="86" x2="125" y2="26"/><line class="cls-1" x1="170" y1="46" x2="125" y2="106"/><line class="cls-1" x1="170" y1="86" x2="125" y2="26"/><circle class="cls-2" cx="80" cy="46" r="10"/><circle class="cls-3" cx="80" cy="46" r="7"/><circle class="cls-2" cx="80" cy="86" r="10"/><circle class="cls-3" cx="80" cy="86" r="7"/><circle class="cls-2" cx="125" cy="26" r="10"/><circle class="cls-3" cx="125" cy="26" r="7"/><circle class="cls-2" cx="125" cy="66" r="10"/><circle class="cls-3" cx="125" cy="66" r="7"/><circle class="cls-2" cx="125" cy="106" r="10"/><circle class="cls-3" cx="125" cy="106" r="7"/><circle class="cls-2" cx="35" cy="66" r="10"/><circle class="cls-3" cx="35" cy="66" r="7"/><circle class="cls-2" cx="170" cy="46" r="10"/><circle class="cls-3" cx="170" cy="46" r="7"/><circle class="cls-2" cx="170" cy="86" r="10"/><circle class="cls-3" cx="170" cy="86" r="7"/><circle class="cls-2" cx="215" cy="66" r="10"/><circle class="cls-3" cx="215" cy="66" r="7"/></g></g></g></svg>