<svg xmlns="http://www.w3.org/2000/svg" viewBox="0 0 141 141"><defs><style>.cls-1{fill:none;stroke-width:2px;}.cls-1,.cls-2,.cls-3{stroke:#9b9ba3;stroke-miterlimit:10;}.cls-2{fill:#1d1d1b;}.cls-3{fill:#fff;}</style></defs><g id="Layer_2" data-name="Layer 2"><g id="_ÎÓÈ_2" data-name="—ÎÓÈ_2"><g id="_4_2" data-name="4_2"><line class="cls-1" x1="10.5" y1="70.5" x2="30.5" y2="110.5"/><line class="cls-1" x1="30.5" y1="30.5" x2="70.5" y2="10.5"/><line class="cls-1" x1="110.5" y1="30.5" x2="130.5" y2="70.5"/><line class="cls-1" x1="110.5" y1="110.5" x2="70.5" y2="130.5"/><line class="cls-1" x1="10.5" y1="70.5" x2="30.5" y2="30.5"/><line class="cls-1" x1="70.5" y1="10.5" x2="110.5" y2="30.5"/><line class="cls-1" x1="130.5" y1="70.5" x2="110.5" y2="110.5"/><line class="cls-1" x1="70.5" y1="130.5" x2="30.5" y2="110.5"/><rect class="cls-1" x="30.5" y="30.5" width="80" height="80"/><rect class="cls-1" x="28.07" y="28.07" width="84.85" height="84.85" transform="translate(-29.2 70.5) rotate(-45)"/><circle class="cls-2" cx="10.5" cy="70.5" r="10"/><circle class="cls-3" cx="10.5" cy="70.5" r="7"/><circle class="cls-2" cx="70.5" cy="10.5" r="10"/><circle class="cls-3" cx="70.5" cy="10.5" r="7"/><circle class="cls-2" cx="30.5" cy="30.5" r="10"/><circle class="cls-3" cx="30.5" cy="30.5" r="7"/><circle class="cls-2" cx="110.5" cy="30.5" r="10"/><circle class="cls-3" cx="110.5" cy="30.5" r="7"/><circle class="cls-2" cx="70.5" cy="130.5" r="10"/><circle class="cls-3" cx="70.5" cy="130.5" r="7"/><circle class="cls-2" cx="30.5" cy="110.5" r="10"/><circle class="cls-3" cx="30.5" cy="110.5" r="7"/><circle class="cls-2" cx="110.5" cy="110.5" r="10"/><circle class="cls-3" cx="110.5" cy="110.5" r="7"/><circle class="cls-2" cx="130.5" cy="70.5" r="10"/><circle class="cls-3" cx="130.5" cy="70.5" r="7"/></g></g></g></svg>